<svg width="55" height="55" viewBox="0 0 55 55" fill="none" xmlns="http://www.w3.org/2000/svg">
<circle cx="27.5" cy="27.5" r="27.5" fill="#ABA8C0"/>
<path d="M30.625 21.25H35.3125C35.5197 21.25 35.7184 21.3323 35.8649 21.4788C36.0114 21.6253 36.0938 21.824 36.0938 22.0312C36.0938 22.2385 36.0114 22.4372 35.8649 22.5837C35.7184 22.7302 35.5197 22.8125 35.3125 22.8125H34.4484L33.2734 33.4C33.1673 34.3555 32.7125 35.2384 31.9961 35.8795C31.2797 36.5207 30.8052 36.8751 29.8438 36.875H25.1562C24.1948 36.8751 23.7203 36.5207 23.0039 35.8795C22.2875 35.2384 21.8327 34.3555 21.7266 33.4L20.55 22.8125H19.6875C19.4803 22.8125 19.2816 22.7302 19.1351 22.5837C18.9886 22.4372 18.9062 22.2385 18.9062 22.0312C18.9062 21.824 18.9886 21.6253 19.1351 21.4788C19.2816 21.3323 19.4803 21.25 19.6875 21.25H24.375C24.375 20.4212 24.7042 19.6263 25.2903 19.0403C25.8763 18.4542 26.6712 18.125 27.5 18.125C28.3288 18.125 29.1237 18.4542 29.7097 19.0403C30.2958 19.6263 30.625 20.4212 30.625 21.25ZM27.5 19.6875C27.0856 19.6875 26.6882 19.8521 26.3951 20.1451C26.1021 20.4382 25.9375 20.8356 25.9375 21.25H29.0625C29.0625 20.8356 28.8979 20.4382 28.6049 20.1451C28.3118 19.8521 27.9144 19.6875 27.5 19.6875ZM25.1562 25.9375V32.1875C25.1562 32.3947 25.2386 32.5934 25.3851 32.7399C25.5316 32.8864 25.7303 32.9688 25.9375 32.9688C26.1447 32.9688 26.3434 32.8864 26.4899 32.7399C26.6364 32.5934 26.7188 32.3947 26.7188 32.1875V25.9375C26.7188 25.7303 26.6364 25.5316 26.4899 25.3851C26.3434 25.2386 26.1447 25.1562 25.9375 25.1562C25.7303 25.1562 25.5316 25.2386 25.3851 25.3851C25.2386 25.5316 25.1562 25.7303 25.1562 25.9375ZM29.0625 25.1562C28.8553 25.1562 28.6566 25.2386 28.5101 25.3851C28.3636 25.5316 28.2812 25.7303 28.2812 25.9375V32.1875C28.2812 32.3947 28.3636 32.5934 28.5101 32.7399C28.6566 32.8864 28.8553 32.9688 29.0625 32.9688C29.2697 32.9688 29.4684 32.8864 29.6149 32.7399C29.7614 32.5934 29.8438 32.3947 29.8438 32.1875V25.9375C29.8438 25.7303 29.7614 25.5316 29.6149 25.3851C29.4684 25.2386 29.2697 25.1562 29.0625 25.1562Z" fill="#F7F6F9"/>
</svg>
