<svg width="18" height="22" viewBox="0 0 18 22" fill="none" xmlns="http://www.w3.org/2000/svg">
<path d="M17.0431 19.0025L15.8703 6.12562C15.8386 5.77087 15.5416 5.5 15.1855 5.5H13.123V4.125C13.123 3.0195 12.694 1.98275 11.9171 1.20587C11.1526 0.44 10.0884 0 8.99802 0C6.72377 0 4.87302 1.85075 4.87302 4.125V5.5H2.81052C2.45439 5.5 2.15739 5.77087 2.12577 6.12562L0.955642 19.0011C0.885517 19.7698 1.14402 20.5356 1.66377 21.1049C2.18352 21.6741 2.92327 22 3.69464 22H14.3028C15.0728 22 15.8125 21.6741 16.3323 21.1063C16.8534 20.537 17.1105 19.7697 17.0431 19.0025ZM11.748 5.5H6.24802V4.125C6.24802 2.60837 7.48139 1.375 8.99802 1.375C9.72677 1.375 10.4363 1.6665 10.945 2.17663C11.4634 2.695 11.748 3.38663 11.748 4.125V5.5Z" fill="#737373"/>
</svg>
