<svg width="18" height="24" viewBox="0 0 18 24" fill="none" xmlns="http://www.w3.org/2000/svg">
<path d="M17.6952 20.73L16.4156 6.6825C16.3811 6.2955 16.0571 6 15.6686 6H13.4186V4.5C13.4186 3.294 12.9506 2.163 12.1031 1.3155C11.2691 0.48 10.1081 0 8.91865 0C6.43765 0 4.41865 2.019 4.41865 4.5V6H2.16865C1.78015 6 1.45615 6.2955 1.42165 6.6825L0.145146 20.7285C0.0686465 21.567 0.350647 22.4025 0.917647 23.0235C1.48465 23.6445 2.29165 24 3.13315 24H14.7056C15.5456 24 16.3526 23.6445 16.9196 23.025C17.4881 22.404 17.7687 21.567 17.6952 20.73ZM11.9186 6H5.91865V4.5C5.91865 2.8455 7.26415 1.5 8.91865 1.5C9.71365 1.5 10.4876 1.818 11.0426 2.3745C11.6081 2.94 11.9186 3.6945 11.9186 4.5V6Z" fill="#F7F6F9"/>
</svg>
