<svg width="20" height="20" viewBox="0 0 20 20" fill="none" xmlns="http://www.w3.org/2000/svg">
<path d="M11.5178 10L19.2082 0.833008C19.3371 0.680664 19.2287 0.449219 19.0295 0.449219H16.6916C16.5539 0.449219 16.4221 0.510742 16.3313 0.616211L9.98851 8.17773L3.64574 0.616211C3.55785 0.510742 3.42602 0.449219 3.28539 0.449219H0.9475C0.748282 0.449219 0.639883 0.680664 0.768789 0.833008L8.45922 10L0.768789 19.167C0.739913 19.201 0.721388 19.2425 0.715413 19.2867C0.709437 19.3308 0.716262 19.3758 0.735078 19.4162C0.753895 19.4566 0.783912 19.4908 0.821565 19.5146C0.859218 19.5385 0.902926 19.551 0.9475 19.5508H3.28539C3.42309 19.5508 3.55492 19.4893 3.64574 19.3838L9.98851 11.8223L16.3313 19.3838C16.4192 19.4893 16.551 19.5508 16.6916 19.5508H19.0295C19.2287 19.5508 19.3371 19.3193 19.2082 19.167L11.5178 10Z" fill="#2D2661"/>
</svg>
