<svg width="27" height="20" viewBox="0 0 27 20" fill="none" xmlns="http://www.w3.org/2000/svg">
<path d="M26.73 0H0.27C0.1215 0 0 0.102273 0 0.227273V2.04545C0 2.17045 0.1215 2.27273 0.27 2.27273H26.73C26.8785 2.27273 27 2.17045 27 2.04545V0.227273C27 0.102273 26.8785 0 26.73 0ZM26.73 17.7273H0.27C0.1215 17.7273 0 17.8295 0 17.9545V19.7727C0 19.8977 0.1215 20 0.27 20H26.73C26.8785 20 27 19.8977 27 19.7727V17.9545C27 17.8295 26.8785 17.7273 26.73 17.7273ZM26.73 8.86364H0.27C0.1215 8.86364 0 8.96591 0 9.09091V10.9091C0 11.0341 0.1215 11.1364 0.27 11.1364H26.73C26.8785 11.1364 27 11.0341 27 10.9091V9.09091C27 8.96591 26.8785 8.86364 26.73 8.86364Z" fill="#2D2661"/>
</svg>
