<svg width="30" height="30" viewBox="0 0 30 30" fill="none" xmlns="http://www.w3.org/2000/svg">
<path d="M11.2504 22.4998C11.2498 22.2077 11.3516 21.9247 11.5379 21.6998L17.1379 14.9998L11.7379 8.28728C11.6341 8.15942 11.5565 8.0123 11.5097 7.85437C11.463 7.69645 11.4478 7.53083 11.4653 7.36705C11.4827 7.20326 11.5323 7.04453 11.6113 6.89999C11.6902 6.75544 11.797 6.62793 11.9254 6.52477C12.0533 6.42094 12.2004 6.3434 12.3583 6.29661C12.5162 6.24982 12.6818 6.23471 12.8456 6.25213C13.0094 6.26955 13.1681 6.31918 13.3127 6.39814C13.4572 6.47711 13.5848 6.58387 13.6879 6.71228L19.7254 14.2123C19.9093 14.4359 20.0098 14.7165 20.0098 15.006C20.0098 15.2956 19.9093 15.5761 19.7254 15.7998L13.4754 23.2998C13.3705 23.4263 13.2416 23.531 13.0962 23.6077C12.9507 23.6844 12.7916 23.7316 12.6279 23.7467C12.4641 23.7618 12.2991 23.7444 12.1421 23.6956C11.985 23.6468 11.8392 23.5675 11.7129 23.4623C11.5695 23.346 11.4537 23.1993 11.3737 23.0329C11.2937 22.8665 11.2516 22.6844 11.2504 22.4998Z" fill="#2D2661"/>
</svg>
