<svg width="33" height="33" viewBox="0 0 33 33" fill="none" xmlns="http://www.w3.org/2000/svg">
<rect x="0.101074" width="32.7978" height="32.7978" rx="16.3989" fill="#2D2661"/>
<g clip-path="url(#clip0_2:74)">
<path d="M23.3926 17.7925C23.0256 17.3289 23.1306 17.1226 23.3926 16.7083C23.3974 16.7035 26.4277 12.5161 26.7399 11.0961L26.7418 11.0951C26.8969 10.5776 26.7418 10.1973 25.9915 10.1973H23.509C22.877 10.1973 22.5856 10.5237 22.4295 10.8889C22.4295 10.8889 21.1655 13.9144 19.3774 15.8757C18.8003 16.4424 18.5335 16.624 18.2185 16.624C18.0633 16.624 17.8221 16.4424 17.8221 15.9249V11.0951C17.8221 10.4745 17.6451 10.1973 17.122 10.1973H13.2184C12.822 10.1973 12.5864 10.4868 12.5864 10.7564C12.5864 11.3449 13.4805 11.4802 13.5732 13.1358V16.7281C13.5732 17.5153 13.4303 17.66 13.1134 17.66C12.2695 17.66 10.2212 14.6221 9.00735 11.1452C8.76231 10.4707 8.52295 10.1982 7.88623 10.1982H5.40275C4.69413 10.1982 4.55127 10.5246 4.55127 10.8898C4.55127 11.535 5.39518 14.7432 8.47565 18.9817C10.5287 21.8748 13.4199 23.4425 16.05 23.4425C17.631 23.4425 17.824 23.0944 17.824 22.4955C17.824 19.731 17.6811 19.4699 18.473 19.4699C18.8401 19.4699 19.472 19.6515 20.9479 21.047C22.6348 22.7017 22.912 23.4425 23.8562 23.4425H26.3388C27.0464 23.4425 27.405 23.0944 27.1987 22.4075C26.7267 20.9628 23.5364 17.9911 23.3926 17.7925Z" fill="white"/>
</g>
<defs>
<clipPath id="clip0_2:74">
<rect width="23.427" height="14.0562" fill="white" transform="translate(4.55127 10.1519)"/>
</clipPath>
</defs>
</svg>
