<svg width="33" height="33" viewBox="0 0 33 33" fill="none" xmlns="http://www.w3.org/2000/svg">
<rect width="32.7978" height="32.7978" rx="16.3989" fill="#2D2661"/>
<g clip-path="url(#clip0_2:67)">
<path d="M16.0423 10.209C12.8228 10.209 10.2163 12.8183 10.2163 16.035C10.2163 19.2545 12.8256 21.861 16.0423 21.861C19.2619 21.861 21.8683 19.2517 21.8683 16.035C21.8683 12.8155 19.259 10.209 16.0423 10.209ZM16.0423 19.8165C13.9524 19.8165 12.2608 18.124 12.2608 16.035C12.2608 13.946 13.9534 12.2535 16.0423 12.2535C18.1313 12.2535 19.8238 13.946 19.8238 16.035C19.8248 18.124 18.1322 19.8165 16.0423 19.8165Z" fill="white"/>
<path d="M20.7191 4.75931C18.6301 4.66186 13.456 4.66659 11.3651 4.75931C9.52782 4.8454 7.90717 5.28912 6.60062 6.59567C4.41704 8.77924 4.69614 11.7216 4.69614 16.0367C4.69614 20.453 4.45016 23.3273 6.60062 25.4777C8.79271 27.6689 11.7776 27.3822 16.0416 27.3822C20.4164 27.3822 21.9263 27.385 23.4732 26.7862C25.5763 25.9697 27.1639 24.0898 27.319 20.7132C27.4174 18.6233 27.4117 13.4501 27.319 11.3592C27.1317 7.37336 24.9926 4.9561 20.7191 4.75931ZM24.0257 24.033C22.5943 25.4645 20.6084 25.3367 16.0142 25.3367C11.2838 25.3367 9.38685 25.4068 8.00272 24.0188C6.40856 22.4323 6.69712 19.8844 6.69712 16.0216C6.69712 10.7944 6.16068 7.02992 11.4067 6.76123C12.6121 6.71866 12.9669 6.70447 16.001 6.70447L16.0435 6.73285C21.0852 6.73285 25.0408 6.20493 25.2783 11.4501C25.3322 12.6469 25.3445 13.0064 25.3445 16.0357C25.3436 20.7113 25.4325 22.6196 24.0257 24.033Z" fill="white"/>
<path d="M22.1 11.342C22.8523 11.342 23.4622 10.7322 23.4622 9.97986C23.4622 9.22755 22.8523 8.61768 22.1 8.61768C21.3477 8.61768 20.7378 9.22755 20.7378 9.97986C20.7378 10.7322 21.3477 11.342 22.1 11.342Z" fill="white"/>
</g>
<defs>
<clipPath id="clip0_2:67">
<rect width="22.7061" height="22.7061" fill="white" transform="translate(4.68555 4.68555)"/>
</clipPath>
</defs>
</svg>
