<svg width="16" height="16" viewBox="0 0 16 16" fill="none" xmlns="http://www.w3.org/2000/svg">
<path d="M7.99229 0.380859C3.78657 0.380859 0.380859 3.79419 0.380859 7.99991C0.380859 12.2056 3.78657 15.619 7.99229 15.619C12.2056 15.619 15.619 12.2056 15.619 7.99991C15.619 3.79419 12.2056 0.380859 7.99229 0.380859ZM11.0475 11.0475C10.977 11.1182 10.8933 11.1742 10.8011 11.2124C10.709 11.2507 10.6102 11.2703 10.5104 11.2703C10.4106 11.2703 10.3118 11.2507 10.2196 11.2124C10.1275 11.1742 10.0437 11.1182 9.97324 11.0475L7.46657 8.54086C7.39458 8.47029 7.33731 8.38615 7.29807 8.29329C7.25884 8.20043 7.23842 8.10071 7.238 7.99991V4.95229C7.238 4.53324 7.58086 4.19038 7.99991 4.19038C8.41895 4.19038 8.76181 4.53324 8.76181 4.95229V7.68753L11.0475 9.97324C11.3447 10.2704 11.3447 10.7504 11.0475 11.0475Z" fill="#ABA8C0"/>
</svg>
