<svg width="16" height="16" viewBox="0 0 16 16" fill="none" xmlns="http://www.w3.org/2000/svg">
<g clip-path="url(#clip0_662_907)">
<path d="M3.26094 16H12.7369C13.395 16 13.9285 15.4665 13.9285 14.8084V8.8501H2.06934V14.8084C2.06934 15.4665 2.60288 16 3.26094 16Z" fill="#737373"/>
<path d="M1.3291 6.6406V8.24003H14.67V6.6406C14.67 5.98253 14.1365 5.44899 13.4784 5.44899H9.99029C11.6469 5.44899 14.0289 3.84122 13.507 2.13632C13.0712 0.712056 11.7631 -0.00826963 10.4264 7.1618e-05C8.53922 0.0107961 8.05006 3.96723 8.05006 3.96723H7.99942C7.99942 3.96723 7.51056 0.0107961 5.62306 7.1618e-05C4.28607 -0.00826963 2.97829 0.712056 2.54246 2.13632C2.02023 3.84122 4.40255 5.44899 6.05978 5.44899H2.52071C1.86264 5.44899 1.3291 5.98253 1.3291 6.6406ZM11.8143 1.43804C11.8143 1.43804 11.756 3.38513 9.13949 4.83919C9.13979 4.83919 9.634 2.33949 11.8143 1.43804ZM4.25718 1.43804C6.43692 2.3392 6.93114 4.83919 6.93114 4.83919C4.31527 3.38513 4.25718 1.43804 4.25718 1.43804Z" fill="#737373"/>
</g>
<defs>
<clipPath id="clip0_662_907">
<rect width="16" height="16" fill="white"/>
</clipPath>
</defs>
</svg>
