<svg width="168" height="168" viewBox="0 0 168 168" fill="none" xmlns="http://www.w3.org/2000/svg">
<g filter="url(#filter0_d_451_28597)">
<path d="M83.9999 140C117.137 140 144 113.137 144 79.9999C144 46.8629 117.137 20 83.9999 20C50.8629 20 24 46.8629 24 79.9999C24 113.137 50.8629 140 83.9999 140Z" fill="#2F2862"/>
<path d="M77.9995 124.716L79.7168 126.434L81.4341 124.716L79.7168 122.999L77.9995 124.716Z" fill="white"/>
<path d="M131 92.7183L132.717 94.4355L134.434 92.7183L132.717 91.001L131 92.7183Z" fill="white"/>
<path d="M122 65.7183L123.717 67.4355L125.434 65.7183L123.717 64.001L122 65.7183Z" fill="white"/>
<path d="M103.999 131.718L105.717 133.436L107.434 131.718L105.717 130.001L103.999 131.718Z" fill="white"/>
<path d="M43.3647 41.1948L45.082 42.9121L46.7993 41.1948L45.082 39.4775L43.3647 41.1948Z" fill="white"/>
<path d="M37.9995 111.718L39.7168 113.436L41.4341 111.718L39.7168 110.001L37.9995 111.718Z" fill="white"/>
<path d="M34.9995 69.7183L36.7168 71.4355L38.4341 69.7183L36.7168 68.001L34.9995 69.7183Z" fill="white"/>
<path d="M74.5913 26.8315L76.3086 28.5488L78.0259 26.8315L76.3086 25.1142L74.5913 26.8315Z" fill="white"/>
<path d="M121 41.7183L122.717 43.4355L124.434 41.7183L122.717 40.001L121 41.7183Z" fill="white"/>
<path d="M120.848 72.8484L124 72.4999L120.848 72.1515L120.5 69L120.152 72.1515L117 72.4999L120.152 72.8484L120.5 76L120.848 72.8484Z" fill="white"/>
<path d="M61.3698 112.37L67.4056 111.703L61.3698 111.036L60.7026 105L60.0355 111.036L54 111.703L60.0355 112.37L60.7026 118.406L61.3698 112.37Z" fill="white"/>
<path d="M87.0473 92.0475L92 91.5L87.0473 90.9525L86.4998 86L85.9525 90.9525L81 91.5L85.9525 92.0475L86.4998 97L87.0473 92.0475Z" fill="white"/>
<path d="M85.3981 42.3982L89 42L85.3981 41.6018L84.9999 38L84.6018 41.6018L81 42L84.6018 42.3982L84.9999 46L85.3981 42.3982Z" fill="white"/>
<path d="M49.8484 72.8483L53 72.5L49.8484 72.1516L49.5002 69L49.1517 72.1516L46 72.5L49.1517 72.8483L49.5002 76L49.8484 72.8483Z" fill="white"/>
<path d="M55 72L55 73L115 73L115 72L55 72Z" fill="white"/>
<path d="M49.0043 77.4472L57.1504 106.877L58.1142 106.61L49.9681 77.1805L49.0043 77.4472Z" fill="white"/>
<path d="M120.109 77.2676L111.963 106.697L110.999 106.43L119.145 77.0008L120.109 77.2676Z" fill="white"/>
<path d="M84.5313 47.5623L68.8262 70.6699L67.9991 70.1078L83.7042 47.0002L84.5313 47.5623Z" fill="white"/>
<path d="M86.0009 47.5629L101.984 71.0801L102.811 70.518L86.8279 47.0008L86.0009 47.5629Z" fill="white"/>
<path d="M102 111H72V112H102V111Z" fill="white"/>
<path d="M109.498 112.498L114 112L109.498 111.502L109 107L108.502 111.502L104 112L108.502 112.498L109 117L109.498 112.498Z" fill="white"/>
</g>
<defs>
<filter id="filter0_d_451_28597" x="0" y="0" width="168" height="168" filterUnits="userSpaceOnUse" color-interpolation-filters="sRGB">
<feFlood flood-opacity="0" result="BackgroundImageFix"/>
<feColorMatrix in="SourceAlpha" type="matrix" values="0 0 0 0 0 0 0 0 0 0 0 0 0 0 0 0 0 0 127 0" result="hardAlpha"/>
<feOffset dy="4"/>
<feGaussianBlur stdDeviation="12"/>
<feColorMatrix type="matrix" values="0 0 0 0 0.176471 0 0 0 0 0.14902 0 0 0 0 0.380392 0 0 0 0.08 0"/>
<feBlend mode="normal" in2="BackgroundImageFix" result="effect1_dropShadow_451_28597"/>
<feBlend mode="normal" in="SourceGraphic" in2="effect1_dropShadow_451_28597" result="shape"/>
</filter>
</defs>
</svg>
